<?xml version="1.0" encoding="UTF-8"?>
<!--Generator: Apple Native CoreSVG 341-->
<!DOCTYPE svg
        PUBLIC "-//W3C//DTD SVG 1.1//EN"
        "http://www.w3.org/Graphics/SVG/1.1/DTD/svg11.dtd">
<svg version="1.1" xmlns="http://www.w3.org/2000/svg" xmlns:xlink="http://www.w3.org/1999/xlink" viewBox="0 0 325.37 331.787">
    <g>
        <rect height="331.787" opacity="0" width="325.37" x="0" y="0"/>
        <path d="M62.4164 308.203C68.4223 312.891 76.0395 311.279 85.1215 304.688L162.612 247.705L240.248 304.688C249.33 311.279 256.801 312.891 262.954 308.203C268.959 303.662 270.278 296.191 266.616 285.498L236 194.385L314.223 138.135C323.305 131.689 326.967 124.951 324.623 117.627C322.28 110.596 315.395 107.227 304.116 107.227L208.168 107.227L179.018 16.2598C175.502 5.41992 170.229 0 162.612 0C155.141 0 149.868 5.41992 146.352 16.2598L117.202 107.227L21.2543 107.227C9.97502 107.227 3.09025 110.596 0.746501 117.627C-1.74373 124.951 2.06486 131.689 11.1469 138.135L89.3695 194.385L58.7543 285.498C55.0922 296.191 56.4106 303.662 62.4164 308.203Z" fill="white" fill-opacity="0.85"/>
    </g>
</svg>
